<?xml version='1.0' encoding='utf-8'?>
<svg xmlns="http://www.w3.org/2000/svg" viewBox="0 0 4095 4095"> <defs> <linearGradient id="b" x1="570.09" x2="562.66" y1="129.67" y2="52.136" gradientUnits="userSpaceOnUse"> <stop stop-color="#771E0D" offset="0"/> <stop stop-color="#983A33" offset="1"/> </linearGradient> </defs> <path transform="scale(4)" d="m521.98 135.13c0.347-25.154 6.317-53.273 24.94-71.403 9.324-9.0767 21.118-13.869 34.175-13.606 9.766 0.1967 18.886 4.5581 25.588 11.655 4.991 5.2864 7.121 11.233 6.812 18.494-0.201 4.7137-2.768 9.2736-6.256 12.368-8.166 7.2432-20.657 6.1002-30.638 8.1006-19.447 3.897-40.064 17.388-50.541 34.425-1.498-0.312-2.572-0.262-4.08-0.034z" fill="url(#b)"/> <defs> <linearGradient id="a" x1="466.37" x2="482.67" y1="122.01" y2="54.563" gradientUnits="userSpaceOnUse"> <stop stop-color="#732007" offset="0"/> <stop stop-color="#993833" offset="1"/> </linearGradient> </defs> <path transform="scale(4)" d="m515.46 135.21c-4.834-4.892-9.653-10.394-14.96-14.744-9.214-7.552-22.128-13.072-34.086-13.191-13.81-0.138-30.043 5.269-41.151-5.824-4.298-4.2923-6.193-10.28-6.016-16.266 0.277-9.3919 5.206-17.415 11.947-23.608 8.963-8.2352 20.155-12.144 32.27-11.575 13.665 0.6416 26.736 8.0858 35.759 18.143 15.951 17.781 22.291 43.295 21.698 66.769l-5.461 0.296z" fill="url(#a)"/> <path transform="scale(4)" d="m521.98 135.13c1.508-0.228 2.582-0.278 4.08 0.034l0.723 0.146c6.283 1.204 13.377 0.872 19.832 1.607 15.131 1.721 30.162 4.464 44.932 8.182 50.714 12.768 99.796 39.372 139.41 73.417 26.045 22.384 48.896 48.68 68.541 76.778 8.977 12.84 16.584 26.666 23.496 40.709 13.927 28.29 24.337 57.869 30.328 88.864 2.579 13.342 3.784 26.694 5.505 40.14 16.83-2.848 36.716 3.353 50.419 13.052 18.231 12.904 30.166 33.017 33.874 54.944 3.895 23.035-2.132 47.741-15.793 66.629-12.006 16.6-27.695 24.958-46.601 31.6-3.921 16.98-6.58 34.189-11.472 50.969-24.914 85.457-73.092 162.04-144.24 216.34-13.992 11.241-29.58 21.048-45.332 29.625-53.323 29.034-114.41 44.844-175.23 42.886-7.234-0.233-14.531-0.363-21.731-1.142l-25.484-3.024c-24.306-3.934-48.908-10.549-71.778-19.677-17.126-6.835-33.359-15.358-49.449-24.318-4.475-2.19-8.831-5.332-12.994-8.049l-15.442-10.201-7.711-5.542c-33.117-25.404-62.964-55.838-86.735-90.2-36.515-52.784-59.315-114.24-68.328-177.65-3.236-1.232-6.63-1.981-9.857-3.236-11.356-4.415-21.873-11.815-30.204-20.671-16.76-17.817-25.671-41.157-24.738-65.583 0.8301-21.745 9.4068-42.836 25.648-57.551 11.554-10.467 26.436-17.708 42.052-19.036 6.427-0.547 13.068-0.022 19.498 0.314-0.609-10.36 1.172-21.835 2.654-32.102 7.601-52.665 28.686-101 59.336-144.31 15.134-21.385 32.599-42.018 51.895-59.775 47.721-43.914 108.55-74.34 171.97-87.453 14.76-3.052 29.908-4.391 44.92-5.52 5.467-0.411 11.265 0.069 16.657-0.943l0.825-0.164 5.461-0.296 1.064 0.209z" fill="#FDD3A4"/> <path transform="scale(4)" d="m507.28 539.18 5.717-0.16c7.549 0.145 16.607 2.409 21.872 8.176 3.598 3.941 5.042 8.305 4.694 13.576-0.152 2.299-1.35 5.777-3.316 7.185-0.651 0.466-2.097 0.96-2.891 0.785-6.748-1.482-0.364-9.77-2.871-12.941-4.231-5.353-8.863-6.738-15.369-7.619-3.889-0.526-9.244-0.351-12.948 0.986-3.45 1.246-7.509 2.232-9.497 5.645-1.818 3.122 0.099 6.378 0.538 9.568 0.165 1.194-0.085 2.171-0.962 3.05-1.403 1.405-2.664 1.532-4.5 1.4-1.273-1.121-2.547-2.138-3.19-3.751l-0.2-0.542c-0.456-1.208-0.818-2.374-1.022-3.655-0.67-4.202 0.038-9.44 2.663-12.887 4.571-6.003 14.261-7.923 21.282-8.816z" fill="#FFA87A"/> <path transform="scale(4)" d="m347.96 334.7c5.654-1.189 14.421-0.667 20.149 0.141l0.893 0.137 1.765 0.273c2.548 0.487 4.8 2.049 6.165 4.276 1.362 2.222 1.807 5.23 1.044 7.721-0.776 2.529-3.141 5.312-5.704 6.139-1.827 0.588-4.318 0.331-6.259 0.367l-13.761 0.252c-18.3 0.519-35.632 6.284-51.994 14.189l-19.997 11.915c0.877-4.94 6.348-12.677 9.477-16.596 14.504-18.167 35.667-26.382 58.222-28.814z" fill="#9E3933"/> <path transform="scale(4)" d="m657.66 334.3c5.485-0.811 10.743-0.264 16.236 0.233 13.792 1.249 26.29 4.121 38.753 10.308 10.402 5.163 19.594 12.558 25.267 22.858 2.657 4.825 4.361 9.987 6.122 15.187l-8.77-6.17c-16.282-10.242-34.919-17.768-53.896-20.961-3.611-0.608-7.201-1.337-10.845-1.713l-15.076-1.094c-2.239-0.176-4.771-0.173-6.657-1.511-1.766-1.254-3.309-3.396-3.671-5.556-0.415-2.48 0.344-4.975 1.857-6.962 2.835-3.724 6.401-4.126 10.68-4.619z" fill="#9E3933"/> <path transform="scale(4)" d="m596.61 513.85-0.987-0.596c-4.289-19.788 0.01-41.385 10.991-58.396 11.494-17.805 29.865-30.16 50.526-34.415 21.774-4.483 44.263 0.606 62.664 12.838 16.93 11.256 29.066 29.918 32.988 49.812 4.001 20.291-1.364 44.576-13.154 61.536-2.273 3.27-5.592 6.997-8.621 9.56l-0.871 0.133c12.552-15.607 19.003-35.545 17.486-55.569-1.471-19.402-10.896-38.065-25.72-50.732-15.851-13.544-36.537-20.487-57.371-18.737-20.019 1.681-39.117 12.38-51.98 27.701-13.6 16.199-17.666 36.178-15.951 56.865z" fill="#FFA87A"/> <path transform="scale(4)" d="m339.02 580.84c-3.09 0.28-5.885-0.454-8.859-1.189-8.483-2.093-17.783-6.047-24.914-11.13-18.05-12.866-29.536-35.593-33.193-57.033-3.496-20.496 0.844-42.3 13.096-59.236 12.54-17.334 32.164-28.774 53.202-32.177 21.558-3.487 44.631 1.962 62.317 14.809 16.074 11.676 26.375 30.088 29.306 49.562 1.143 7.597 0.743 15.871-0.292 23.459-0.423 3.101-0.91 6.575-2.784 9.134 2.364-21.656-1.398-41.137-15.247-58.504-12.97-16.265-31.318-26.624-52.07-28.846-20.786-2.225-39.278 4.183-55.312 17.224-14.968 12.173-24.719 30.988-26.735 50.089-2.041 19.346 3.923 40.904 16.395 56.002 12.447 15.07 26.51 22.683 45.09 27.836z" fill="#FFA87A"/> <path transform="scale(4)" d="m137.25 504.56 3.43-0.169c8.573-0.044 19.227 6.002 25.037 12.075l0.4 0.445c0.68 0.746 1.111 1.326 1.321 2.344 0.429 2.075 0.089 4.582 0.166 6.713l1.262 15.53c2.577 19.67 6.879 38.513 12.652 57.479-6.377 3.854-17.477 3.808-24.585 2.907-6.661-0.967-13.183-3.925-18.717-7.699-13.02-8.878-21.841-24.434-24.827-39.68-1.993-10.183-1.542-22.329 2.94-31.86 4.707-10.006 10.772-14.328 20.921-18.085z" fill="#FFA87A"/> <path transform="scale(4)" d="m874.72 504.13c3.427-0.319 6.826-0.67 10.17 0.378 9.645 3.021 17.372 8.784 22.04 17.939 6.529 12.805 6.847 27.867 2.325 41.348-5.674 16.918-15.739 29.279-31.788 37.276-12.195 4.592-23.332 3.715-35.698 0.699 6.6-19.553 10.584-41.097 12.46-61.627l1.478-24.591c6.188-5.193 11.253-8.843 19.013-11.422z" fill="#FFA87A"/> <path transform="scale(4)" d="m448.78 704.38c13.82-16.333 31.197-26.075 52.602-28.713 21.534-2.654 41.347 3.534 58.668 16.307 4.735 3.492 8.898 7.623 13.515 11.255-14.423 17.848-35.055 28.593-57.73 31.014-18.46 1.972-38.193-3.089-52.642-14.976-5.425-4.463-9.979-9.471-14.413-14.887z" fill="#FD6916"/> <path transform="scale(4)" d="m448.78 704.38c-6.486-7.697-10.638-17.236-13.53-26.796-3.081-10.184-5.254-22.146-4.389-32.765 0.289-3.547 0.778-7.112 2.587-10.254 0.477-0.829 1.06-1.617 1.724-2.304 7.418-7.682 20.245-1.922 28.564 1.006 22.115 7.782 47.613 9.907 70.669 5.531 9.043-1.717 17.91-4.548 26.761-7.032 7.248-2.034 16.662-4.723 23.656-0.508 3.84 2.314 5.812 5.899 6.776 10.196 0.88 3.924 0.403 8.461 0.06 12.428-1.601 18.552-7.844 33.904-18.093 49.347-4.617-3.632-8.78-7.763-13.515-11.255-17.321-12.773-37.134-18.961-58.668-16.307-21.405 2.638-38.782 12.38-52.602 28.713z" fill="#9E3933"/> <path transform="scale(4)" d="m298.32 591.21 12.933 0.327c17.191 1.978 37.114 10.849 47.922 24.702 6.424 8.235 10.458 20.12 9 30.62-1.31 9.426-5.082 17.28-11.468 24.31-13.98 15.39-33.928 22.351-54.328 23.461-19.18 1.041-38.795-6.047-53.521-18.081-8.7-7.11-15.804-17.855-16.74-29.302-0.887-10.852 2.207-22.629 9.435-30.959 14.513-16.727 35.304-23.568 56.767-25.078z" fill="#FFA87A"/> <path transform="scale(4)" d="m718.94 589.21c3.47-0.482 7.357-0.219 10.865 0.015 15.33 1.023 31.27 6.622 43.761 15.623 9.674 6.971 16.418 19.057 18.159 30.78 1.771 11.926-3.024 24.544-10.264 33.875-12.139 15.646-32.356 22.568-51.345 24.801-5.195 0.864-11.903 0.152-17.121-0.63-7.127-1.066-14.393-2.894-20.98-5.854-13.445-6.043-26.735-17.19-32.172-31.217-2.997-7.731-3.705-16.613-1.622-24.678l0.246-0.922c1.368-5.244 3.467-9.855 6.56-14.318l0.478-0.682 1.372-1.917c11.915-15.083 33.514-23.023 52.063-24.876z" fill="#FFA87A"/> <path transform="scale(4)" d="m339.02 580.84c-18.58-5.153-32.643-12.766-45.09-27.836-12.472-15.098-18.436-36.656-16.395-56.002 2.016-19.101 11.767-37.916 26.735-50.089 16.034-13.041 34.526-19.449 55.312-17.224 20.752 2.222 39.1 12.581 52.07 28.846 13.849 17.367 17.611 36.848 15.247 58.504-1.423 5.445-2.526 11.141-4.536 16.408-6.065 15.888-18.052 29.905-32.776 38.443-8.939 5.184-19.655 8.88-29.999 9.601-4.796 0.335-10.168 0.237-14.961-0.037-1.248-0.071-4.77-1.002-5.607-0.614z" fill="#FEFEFE"/> <path transform="scale(4)" d="m351.03 454.66c12.106-1.714 27.564 3.237 37.254 10.311 12.248 8.941 19.443 21.677 21.781 36.475 2.15 13.617-2.26 28.419-10.259 39.429-9.619 13.24-23.378 19.956-39.181 22.448l-0.068 0.017c-12.774 0.746-25.4-2.143-35.964-9.527-12.53-8.759-19.943-21.499-22.477-36.48-2.273-13.443 0.888-28.547 8.855-39.684 9.941-13.896 23.461-20.344 40.059-22.989z" fill="#643101"/> <path transform="scale(4)" d="m335.18 470.03c2.819-0.172 6.068-0.129 8.779 0.72 3.845 1.205 7.032 4.388 8.666 8.017 1.607 3.567 1.941 7.886 0.517 11.565-1.933 4.996-6.032 7.385-10.642 9.481-3.148 0.46-5.326 0.543-8.368-0.541-3.7-1.318-7.079-4.198-8.671-7.82-1.913-4.352-1.988-9.104-0.118-13.487 1.84-4.314 5.77-6.227 9.837-7.935z" fill="#FEFEFE"/> <path transform="scale(4)" d="m596.61 513.85c-1.715-20.687 2.351-40.666 15.951-56.865 12.863-15.321 31.961-26.02 51.98-27.701 20.834-1.75 41.52 5.193 57.371 18.737 14.824 12.667 24.249 31.33 25.72 50.732 1.517 20.024-4.934 39.962-17.486 55.569-3.807 3.604-7.406 7.534-11.468 10.85-7.345 5.997-16.306 10.22-25.339 12.992-18.646 5.723-39.094 2.969-56.246-5.91l-2.455-1.292c-15.936-8.908-28.453-25.764-34.389-42.865-1.544-4.448-2.171-9.123-3.459-13.629l-0.18-0.618z" fill="#FEFEFE"/> <path transform="scale(4)" d="m665.82 453.69c4.167-0.317 8.252 0.052 12.382 0.633 13.836 1.943 26.352 9.766 34.615 20.964 8.445 11.444 12.688 25.797 10.359 40.001-1.707 10.411-5.5 19.755-11.905 28.19-9.432 12.42-23.718 17.888-38.656 19.918-3.045 0.08-6.232 0.331-9.243-0.205-9.667-1.719-18.521-4.744-26.442-10.721-11.912-8.989-19.905-22.965-21.929-37.729-1.989-14.51 1.785-28.57 10.688-40.212 9.924-12.977 24.326-18.798 40.131-20.839z" fill="#643101"/> <path transform="scale(4)" d="m647.53 470.52c2.637-0.21 5.381 0.334 7.827 1.339 3.55 1.459 6.081 4.394 7.489 7.903 1.581 3.943 1.466 8.405-0.401 12.239-2.42 4.971-6.35 6.864-11.33 8.467-2.564 0.173-5.672-0.391-7.986-1.536-3.631-1.797-6.362-5.259-7.65-9.056-1.364-4.019-1.107-7.628 0.892-11.374 2.628-4.924 6.138-6.344 11.159-7.982z" fill="#FEFEFE"/> <path transform="scale(4)" d="m144.8 631.24 0.637 0.132c15.588 3.108 31.005 2.628 45.311-4.832l1.227-0.622c4.991 12.042 10.444 23.814 17.029 35.082 20.302 34.733 48.327 63.986 81.277 86.907 15.205 10.577 31.367 19.983 48.538 27.008l55.328 18.736-0.51 0.471c-4.842 4.408-10.877 7.325-16.354 10.847-4.999 3.215-9.735 6.907-14.349 10.649-21.454 17.396-38.264 39.934-52.177 63.628l-10.894 19.846c-33.117-25.404-62.964-55.838-86.735-90.2-36.515-52.784-59.315-114.24-68.328-177.65z" fill="#FD6916"/> <path transform="scale(4)" d="m632.45 791.32 4.739-1.143c15.969-4.365 31.798-10.239 46.992-16.797 24.517-10.581 48.797-23.848 69.527-40.828 21.113-17.293 39.049-37.931 53.844-60.817 6.343-9.813 12.379-20.202 17.594-30.672 3.096-6.216 5.548-12.618 8.99-18.678 14.04 9.392 30.2 11.402 46.598 8.843-3.921 16.98-6.58 34.189-11.472 50.969-24.914 85.457-73.092 162.04-144.24 216.34-4.416-5.384-7.368-12.944-10.888-19.007-4.944-8.513-10.907-16.726-16.678-24.699-10.689-14.768-23.304-29.053-37.218-40.836-9.1-7.708-18.983-14.63-27.783-22.671z" fill="#FD6916"/> <path transform="scale(4)" d="m521.98 135.13c1.508-0.228 2.582-0.278 4.08 0.034l0.723 0.146c6.283 1.204 13.377 0.872 19.832 1.607 15.131 1.721 30.162 4.464 44.932 8.182 50.714 12.768 99.796 39.372 139.41 73.417 26.045 22.384 48.896 48.68 68.541 76.778 8.977 12.84 16.584 26.666 23.496 40.709 13.927 28.29 24.337 57.869 30.328 88.864 2.579 13.342 3.784 26.694 5.505 40.14 0.73 10.935 0.486 22.814-1.362 33.6l-2.832-23.38c-7.756-45.767-24.233-89.783-48.692-129.21-40.391-65.113-103.24-116.83-175.41-142.99-13.168-4.772-26.538-8.275-40.158-11.476 2.658 4.02 4.945 7.834 6.531 12.398 4.889 14.064 0.677 30.544-5.493 43.498-6.83 14.761-20.063 28.357-34.485 35.807-20.023 10.345-43.909 12.881-65.462 5.98-20.908-6.695-38.683-20.765-48.769-40.418-9.465-18.444-9.832-38.144-3.511-57.636-13.972 3.691-27.774 7.013-41.424 11.876-77.932 27.767-144.81 80.304-186.53 152.13-24.748 42.615-38.776 91.083-42.678 140.12-0.537-2.557-0.941-5.172-1.037-7.786l-0.07-16.868c-9e-3 -1.378 0.35-4.081-0.25-5.169-0.609-10.36 1.172-21.835 2.654-32.102 7.601-52.665 28.686-101 59.336-144.31 15.134-21.385 32.599-42.018 51.895-59.775 47.721-43.914 108.55-74.34 171.97-87.453 14.76-3.052 29.908-4.391 44.92-5.52 5.467-0.411 11.265 0.069 16.657-0.943l0.825-0.164 5.461-0.296 1.064 0.209z" fill="#9E3933"/> <path transform="scale(4)" d="m439.19 191.17c1.554-2.558 3.079-5.507 5.101-7.715 6.973-7.614 17.513-12.565 27.463-14.945 3.516-0.841 7.28-1.691 10.887-1.944-7.821 3.352-13.491 7.756-16.653 15.93l-1.013 3.25-0.238 0.808c-3.677 13.119 1.329 29.404 7.898 40.88 10.541 18.418 27.383 30.493 47.76 35.844 21.022 5.522 41.44 0.11 59.724-10.64 3.488-2.051 7.135-5.285 11.298-5.201-6.83 14.761-20.063 28.357-34.485 35.807-20.023 10.345-43.909 12.881-65.462 5.98-20.908-6.695-38.683-20.765-48.769-40.418-9.465-18.444-9.832-38.144-3.511-57.636z" fill="#89291C"/> <path transform="scale(4)" d="m630.31 791.96 2.139-0.635c8.8 8.041 18.683 14.963 27.783 22.671 13.914 11.783 26.529 26.068 37.218 40.836 5.771 7.973 11.734 16.186 16.678 24.699 3.52 6.063 6.472 13.623 10.888 19.007-13.992 11.241-29.58 21.048-45.332 29.625-53.323 29.034-114.41 44.844-175.23 42.886-7.234-0.233-14.531-0.363-21.731-1.142l-25.484-3.024c-24.306-3.934-48.908-10.549-71.778-19.677-17.126-6.835-33.359-15.358-49.449-24.318-4.475-2.19-8.831-5.332-12.994-8.049l-15.442-10.201-7.711-5.542 10.894-19.846c13.913-23.694 30.723-46.232 52.177-63.628 4.614-3.742 9.35-7.434 14.349-10.649 5.477-3.522 11.512-6.439 16.354-10.847l0.51-0.471 2.904 0.567 28.296 5.993 14.288 2.28 63.565 6.178c8.954 1.47 19.186-0.065 28.19-0.64l10.358-0.177 21.36-2.137c5.834-0.708 12.519-2.708 18.32-2.57l15.141-2.452 33.736-8.737z" fill="#FEBC01"/> <path transform="scale(4)" d="m307.58 904.63c2.008-3.449 5.555-5.653 9.362-6.717 4.422-1.237 8.603 0.137 12.396 2.437 4.42 2.679 7.943 7.143 9.029 12.256 0.734 3.448-0.499 7.387-2.351 10.274-4.475-2.19-8.831-5.332-12.994-8.049l-15.442-10.201z" fill="#E7BA1B"/> <path transform="scale(4)" d="m659.68 858.66c2.357 0.034 4.884 0.18 7.159 0.823 4.59 1.296 8.57 4.409 10.743 8.696 1.896 3.741 2.646 8.019 1.313 12.061l-0.266 0.763c-0.606 1.772-1.257 3.508-2.265 5.1-2.702 4.263-7.768 6.3-12.467 7.436-1.784 0.036-3.597 0.154-5.339-0.305l-0.559-0.157c-1.891-0.51-3.728-1.095-5.415-2.122-3.978-2.423-7.239-6.986-8.29-11.489-1.032-4.419-0.18-9.268 2.363-13.023 3.052-4.506 7.869-6.707 13.023-7.783z" fill="#E7BA1B"/> <path transform="scale(4)" d="m595.74 915.59c4.479 0.049 7.692-0.239 12.01 1.556 4.117 1.712 7.235 5.968 8.789 10.033 1.859 4.862 1.688 9.491-0.69 14.158-2.591 5.085-6.98 6.952-12.047 8.747-3.092 0.983-7.321 0.572-10.302-0.603-4.836-1.906-8.047-5.24-9.997-10.027-2.075-5.094-1.452-9.853 0.735-14.773 2.277-5.123 6.619-7.129 11.502-9.091z" fill="#E7BA1B"/> <path transform="scale(4)" d="m409.29 901.55c2.385-0.077 4.988-0.327 7.314 0.267l0.649 0.178 3.5 1.046c4.651 1.907 7.639 5.932 9.309 10.54 1.715 4.73 1.219 8.918-0.914 13.419-2.471 5.214-6.985 7.549-12.164 9.391-3.733 0.7-6.912 0.482-10.497-0.796-4.7-1.676-7.915-5.062-9.846-9.618-2.098-4.951-1.543-10.448 0.674-15.242 2.482-5.365 6.693-7.274 11.975-9.185z" fill="#E7BA1B"/> <path transform="scale(4)" d="m503.34 915.53c3.618-0.098 7.509-0.163 10.959 1.108 4.792 1.766 8.272 5.351 10.221 10.031 1.891 4.542 1.936 9.052-0.082 13.568-2.617 5.853-6.166 8.233-12.047 10.434-2.528 0.474-6.332 0.662-8.827 0.044l-0.567-0.155-3-0.933c-4.185-1.631-7.168-4.809-8.93-8.902-2.154-5.005-2.356-9.981-0.174-15.029 2.365-5.472 7.143-8.137 12.447-10.166z" fill="#E7BA1B"/> <path transform="scale(4)" d="m382.38 830.55c4.391-0.223 8.529 0.401 12.408 2.565 4.134 2.306 7.038 6.202 8.277 10.763 1.406 5.177 0.448 10.967-2.473 15.51-2.786 4.333-7.308 6.451-12.164 7.59-4.311 0.606-8.149 0.3-12.083-1.682-4.026-2.027-6.723-6.296-8.144-10.462-1.809-5.302-1.48-10.047 1.125-15.026 2.743-5.241 7.718-7.516 13.054-9.258z" fill="#E7BA1B"/> <path transform="scale(4)" d="m596.57 800.69 33.736-8.737c-1.755 28.576-18.122 56.593-39.281 75.331-23.748 21.032-55.525 30.905-87.026 29.128-30.586-1.726-60.571-16.483-80.75-39.431-12.126-13.79-21.646-30.519-24.946-48.742-0.758-4.185-1.545-9.125-1.298-13.355l0.047-0.669 28.296 5.993 14.288 2.28 63.565 6.178c8.954 1.47 19.186-0.065 28.19-0.64l10.358-0.177 21.36-2.137c5.834-0.708 12.519-2.708 18.32-2.57l15.141-2.452z" fill="#E7BA1B"/> <path transform="scale(4)" d="m425.35 800.21 14.288 2.28 63.565 6.178c8.954 1.47 19.186-0.065 28.19-0.64l10.358-0.177 21.36-2.137c5.834-0.708 12.519-2.708 18.32-2.57l15.141-2.452 0.291 0.85c-1.442 10.849-8.14 22.996-14.778 31.564-13.51 17.439-35.798 30.589-57.834 33.138-22.972 2.658-48.361-3.379-66.771-17.712-11.404-8.879-21.168-19.793-27.789-32.704-2.253-4.393-4.56-9.883-5.156-14.829l0.815-0.789z" fill="#C98F03"/> <path transform="scale(4)" d="m492.41 843.39c6.829-4.42 14.581-7.279 22.087-10.334l47.034-17.501c3.73-1.253 11.204-4.996 14.905-3.447-10.377 17.152-24.638 27.497-44.147 32.294-12.643 3.108-27.316 2.264-39.879-1.012z" fill="#FDD3A4"/> <path transform="scale(4)" d="m439.64 802.49 63.565 6.178c8.954 1.47 19.186-0.065 28.19-0.64l10.358-0.177 21.36-2.137c5.834-0.708 12.519-2.708 18.32-2.57-1.476 3.072-3.07 6.145-4.991 8.965-3.701-1.549-11.175 2.194-14.905 3.447l-47.034 17.501c-7.506 3.055-15.258 5.914-22.087 10.334-1.517-0.228-2.926-0.604-4.392-1.046-21.884-6.607-37.644-19.821-48.384-39.855z" fill="#FFA87A"/> </svg>